<?xml version="1.0" encoding="utf-8"?>
<!-- Generator: Adobe Illustrator 25.2.3, SVG Export Plug-In . SVG Version: 6.00 Build 0)  -->
<svg version="1.1" id="Layer_1" xmlns="http://www.w3.org/2000/svg" xmlns:xlink="http://www.w3.org/1999/xlink" x="0px" y="0px"
	 viewBox="0 0 1465.3 1491.2" style="enable-background:new 0 0 1465.3 1491.2;" xml:space="preserve">
<style type="text/css">
	.st0{display:none;}
	.st1{display:inline;fill:#DCB456;}
	.st2{display:inline;fill:#231F20;}
	.st3{fill:#DCB456;}
	.st4{fill:#FFFFFF;}
</style>
<g id="Layer_1_1_" class="st0">
	<path class="st1" d="M1075.1,516.3c-7.9-3.9-15.1-6.3-21.8-7.5C1074.9,517.8,1088.1,522.8,1075.1,516.3z"/>
	<polygon class="st2" points="790.7,109.3 742.5,112.4 694.7,119.2 647,124.3 599.1,129.4 551.4,135.2 503.9,143.7 455.6,145.1 
		407.9,149.6 365.9,147.9 324,143.5 281.7,144.1 242.9,137.7 239.6,160.8 279.4,184.8 302.5,223.9 320,265.4 333.5,308.9 
		335.8,354.4 338.2,399.8 341.3,447.2 339.9,494.6 338.8,542 336.3,589.5 339.2,636.8 385.7,638 431.1,631.3 480.4,597.9 
		478.5,544.3 479.1,491.8 477.7,439.4 477.2,387 483.4,341.8 488,295.9 516.3,259.5 549.9,227.9 594.6,215.9 636.7,197 682.5,192.9 
		727.9,186.7 773.8,186.4 820.2,187.1 866.1,194.7 908,215.2 952.2,229.7 986.8,260.6 1020.8,292.1 1042.6,333.1 1064,374 
		1074.2,419.1 1085.8,464.1 1087.6,510.2 1079.5,554.9 1070.5,599.1 1053,640.7 1033.5,681.3 1006.7,717.5 975.2,749.4 940.2,777.9 
		899.8,798.9 853.2,808.2 806.4,815.7 759.1,818.2 711.6,818.1 664.3,813.8 617.6,804.9 570.8,797.8 523.6,791.7 478.7,780.1 
		476.5,738.1 475.8,695.4 477.3,653.4 429.2,668.7 379.9,669.1 338.9,639.7 338.7,691.1 340.6,742.7 340.9,794.3 338.5,845.9 
		341,894.3 383.8,883.3 430.4,876.3 477.2,879.1 477.1,846.1 526.7,853.8 575.1,865 624.5,870 673.3,879.8 722.5,888.6 772.7,885 
		822.3,890 871.8,884.7 922.1,887.4 970.6,874.9 1014.3,860.7 1055,839.2 1096.2,819.3 1134.1,793.6 1168.5,763.2 1195.8,726.7 
		1221.1,688.9 1238,646.7 1253.5,603.8 1259.4,558.4 1261.2,512.8 1264.8,465.5 1258.5,418.5 1246.3,372.7 1226.8,329.6 
		1205.4,287.8 1174.6,252.5 1144.9,215.9 1108.1,186.1 1063.7,169.3 1023.4,143.9 976.3,137.1 931.9,120.1 884.6,118 837.7,114.7 	
		"/>
	<polygon class="st2" points="479,1277.8 476.3,1227.9 476.6,1178.1 477.6,1128.2 476.3,1078.4 478.3,1028.5 476.2,978.5 
		477.6,928.5 430,929.5 383.3,938 338.4,955 338.8,1000.4 338,1045.4 339.2,1090.4 337.9,1135.4 340.3,1180.3 339,1225.2 
		339.3,1270.1 319.4,1308.2 283.3,1333 243.3,1351.9 244.7,1379.1 291.8,1380.4 339.8,1379.2 387.8,1380.6 435.9,1379.5 
		483.9,1381.9 532.1,1380.3 580.2,1380.5 580.3,1344.5 538.5,1332.3 500.1,1312.5 	"/>
</g>
<g id="Layer_2_1_" class="st0">
	<path class="st1" d="M1462.5,592.4c-4-59.3-27-132.2-24.3-163.2s-8.1-83.6-22.9-43.2c-14.8,40.5-55.6,84.9-68.1,117.7
		c-12.4,32.4-19.5,63.1-20.9,119.7c-1.4,56.7,0,107.9-17.5,66.1c-17.5-41.8-99.8-125.4-126.8-149.7s-74.2-56.7-105.2-74.2
		c-20.9-11.8-68.6-30.8-121.9-42.8c3.1,15.6,3.5,32.5,2.6,48.7c30.1,7.8,58.4,17.3,76.1,25.1c43.2,18.9,151.1,107.9,180.7,144.3
		c29.7,36.4,68.8,91.7,76.9,126.8c8.1,35.1,1.3,45.9,8.1,72.8c6.7,27,7.3,38.7,5.4,70.1c-2,33.1-5.1,101.2-47.2,141.6
		c-15.4,14.8-74.2,52.6-82.3,56.7c-8.1,4-70.1,22.9-101.2,20.2c-31-2.7-111.4-7.3-142.4-26.2c-31-18.9-131.4-62.8-221.8-112.7
		C640.6,952,515.6,912,448.1,903.9c-67.4-8.1-132.3,20.9-184.2,54.3s-92.7,38.3-130.3,123.5c-9.4,21.4-16.2,39.5-21.2,55.1
		c7.8-1.5,15.7-2.8,24.1-3.2c23.1-1,46.5,5.6,67.5,17.5c0.5-2.8,0.9-5.7,1.4-8.5c4-24.3,38-72.8,52.1-85.6
		c2.9-2.6,49.4-63.6,85.5-75.5c48-15.9,110.9-38.5,210.4-2.2c37.7,13.8,102.5,45.9,122.7,51.3s32.4,58,68.8,101.2
		c36.4,43.2,89,109.3,160.5,164.6c71.5,55.3,233.3,44.5,260.3,41.8s86.3,2.7,101.2,4c14.8,1.4,5.4-32.4-56.7-62
		c-62-29.7-134.9-89-207.7-114.7c-72.8-25.6,45.9,20.2,114.7,6.7c68.8-13.5,164.6-54,215.8-172.7c51.3-118.7,64.7-120,80.9-149.7
		c16.2-29.7,47.2-94.4,44.5-132.2C1455.8,680.1,1466.6,651.7,1462.5,592.4z M1037.3,1274.6c0,0-97.3-14.1-138.8-54.1
		c-41.5-40.1-60.5-64.9-60.5-64.9l70.8,53C962.6,1247.9,1037.3,1274.6,1037.3,1274.6z M1401.3,757.9
		c-10.1,21.7,11.7-61.7,14.6-113.7s3.1-75.1,3.1-75.1C1444.7,631.8,1411.5,736.2,1401.3,757.9z"/>
	<path class="st1" d="M769.2,1022.7c36.4,21.6,95.8,24.3,134.9-6.7c39.1-31,165.2-156.6,209.7-176.9
		c44.5-20.2,106.9-38.5,113.6-38.5s-9,29.2-18.5,56.2c-9.4,27-20.2,94.4-47.2,137.6c-27,43.2-106.6,97.1-168.6,98.5
		c-62,1.3-113.3-8.1-62,17.5c51.3,25.6-91.7-5.4-91.7-5.4l-91.7-58L769.2,1022.7z"/>
	<path class="st1" d="M931.1,450.5c-79.6,5.7-130.9,36.7-180.8,98.8c-49.9,62-94.2,103.9-128.7,104.6s-84.3,7.8-58.1,32.6
		c26.3,24.7,154.4,94.9,265,18s126.9-154.7,145.7-183.2c14.6-22.1,31.7-33.4,55-29.3C992.5,476.7,931.1,450.5,931.1,450.5z
		 M898.9,551.1c-13,14.6-38.7,76.8-77.7,101.2c-38.9,24.3-79.5,32.1-25.7-2.1c71.4-45.4,63.2-85.2,111.9-117.7
		C907.4,532.6,911.9,536.5,898.9,551.1z"/>
	<path class="st1" d="M868.3,435.8c-78.8-8-112.6-32.2-189.5-86.2s-138.9-31-151.1-25.6c-12.1,5.4-28.3-37.8,72.8-56.7
		c101.2-18.9,219.5-22,289.2,47.7c69.6,69.7,98,108.8,170.8,142.5s-75,19.6-117.1-5.7C901.4,426.5,868.3,435.8,868.3,435.8z"/>
	<path class="st1" d="M581.7,406.3c-25.6,4.3-47.2,36.4-40.5,56.7c6.7,20.2,54,33.7,70.1-10.8C627.6,407.6,597.9,403.6,581.7,406.3z
		"/>
	<path class="st1" d="M205.2,307.7c-23.7,4.4-41.9,43.8-8,62.4c33.8,18.6,45,8.1,58.9-13C270.1,336.1,234.8,302.2,205.2,307.7z"/>
	<path class="st1" d="M1191.4,170.2c-21.1,9.4-22.9,48.6,5.4,66.1s49.9-1.4,49.9-33.7S1215.7,159.4,1191.4,170.2z"/>
	<path class="st1" d="M1307.4,279.5c-17.2,7.8-48.6,22.9-21.6,55.3c27,32.4,48.6,1.3,52.6-16.2
		C1342.5,301,1322.2,272.7,1307.4,279.5z"/>
	<path class="st1" d="M71.9,922.9c-16.2,4-31,45.9-13.5,75.5c17.5,29.7,49.9-8.1,52.6-29.7C113.7,947.1,93.4,917.5,71.9,922.9z"/>
	<path class="st1" d="M581.7,1069.9c-15.8,0-24.3,13.5-37.8,28.3s-27,18.9-2.7,40.5s47.2-2.7,56.7-14.8
		C607.3,1111.7,592.5,1069.9,581.7,1069.9z"/>
	<path class="st1" d="M668,1207.5c-20-2.8-36.4,27-45.9,39.1c-9.4,12.1,12.1,16.2,13.5,24.3c1.3,8.1,33.7,14.8,52.6-2.7
		C707.2,1250.6,716.6,1214.2,668,1207.5z"/>
	<path class="st1" d="M1304.7,1134.6c-17.6-6.8-37.8,18.9-44.5,35.1s5.4,47.2,35.1,39.1C1324.9,1200.7,1339.8,1148.1,1304.7,1134.6z
		"/>
	<path class="st1" d="M241.6,620.8c-71.3-6.8-127.9,18.8-175.1,37.7s-99.8,79.6,29.7,89s160.9-87.6,224.8-78.2
		C384.8,678.7,241.6,620.8,241.6,620.8z"/>
	<path class="st1" d="M839.3,928.4c-12.3,5.6-34.7,16.4-15.4,39.5s34.7,1,37.5-11.6C864.4,943.8,849.9,923.6,839.3,928.4z"/>
	<path class="st1" d="M192.7,793.8c-17.6-6.8-37.8,18.9-44.5,35.1s5.4,47.2,35.1,39.1C212.9,859.9,227.7,807.3,192.7,793.8z"/>
	<path class="st1" d="M954.9,422.8c-25.8-5.8-52.9-10-78.9-11c-79.8-2.9-145.9,24-186.3,59.1c-40.5,35.1-88.4,61.1-114.7,89
		c-40.5,43.2-133.6,74-170.7,81.5s-79.3,4.5-147.9-80.3S143.3,414.2,108.2,395.4c-35.1-18.9-88.1-38.3-105.7-23.2
		C-13.8,386.1,53,547.3,120.4,592.1c67.4,44.7,143.9,28.5,169.1,54.8c25.1,26.3,73,32.1,139.8,20.9c40.5-6.7,133.5-45.9,155.1-68.8
		s25.6-18.9,47.2-31c21.6-12.1,69.9-50.2,87.7-66.1c38.2-34.1,84.4-30.6,124.5-42.3c23.6-6.9,70.4,0.6,113.7,11.8
		C958.4,455.4,958,438.5,954.9,422.8z M228.1,573c-29.5-10.8-90.3-66.6-124.2-131.4c0,0,8.7,5.8,28.9,26
		c12.8,12.8,43.4,51.5,68.1,78.6C215.3,562,235.9,575.8,228.1,573z"/>
	<path class="st1" d="M82.5,1321.3c2.8,4.6,122.7-22.5,117.6-36.7c0-0.1-0.1-0.1-0.1-0.2c-5.4-20.2-5.4-36.4-4-64.7
		s5.4-52.6,9.5-76.9c4-24.3,38-72.8,52.1-85.6c2.9-2.6,50.2-62.8,86.2-74.7c48-15.9,96.1-41.6,209.6-2.9c3.1,1.1,6.4,2.4,9.8,3.7
		c3.3-16.5,5.9-33.1,7.3-49.9c-45.7-14.5-90.4-25.5-122.3-29.3C380.8,896,315.9,925,264,958.4s-92.7,38.3-130.3,123.5
		s-33.5,118.9-40.3,147.3c-6.7,28.3,0,31-5.4,58C85.5,1299.5,83.7,1311.6,82.5,1321.3z"/>
</g>
<g>
	<g id="Layer_3">
		<path d="M242.9,137.7c0,0,155.1,21.4,261,6s279.8-52.3,414.8-24.1s225.5,76.6,278.5,158.9s88.1,189,49.5,344.1
			s-205.5,241.7-296.8,257.7c-91.2,16-289,5.7-472.8-34.2c0.1,17.1,0.2,33,0.2,33c-46.9-2.8-111,1.4-136.3,15.3
			c-0.1-106.1-2.2-229.1-2.2-229.1c76.7,4.8,98.4,3.5,138.5-11.9c-1.2,61.3,1.4,126.7,1.4,126.7c103.6,19.5,203.3,53.6,383.1,26.4
			s217.7-251.5,221.7-273.9c4-22.4,1-187.6-87.9-263.7s-177.2-94.5-325.8-74.8s-169.3,83-184.5,127.8S480.4,598,480.4,598
			c-65.6,35.7-115.3,36.2-142.3,21.7c-0.5-55.1,2.6-290.6-18.2-354.3c-20.7-63.7-48.5-97.6-80.4-104.6
			C242.9,137.7,242.9,137.7,242.9,137.7z"/>
		<path d="M580.2,1380.5c-0.1,0-327,0.1-335.5-1.4l0,0l-1.4-27.2l0,0c28.2-13.3,97.9-13.3,96.5-152.8s-1.4-244-1.4-244.1l0,0
			c50.3-18,61-26.7,139.2-26.5l0,0c-0.6,68.2-1.3,299.4-1.3,299.4l0,0c1.8,51.9-20.2,106.7,104,116.6l0,0
			C580.2,1362.6,580.2,1380.4,580.2,1380.5L580.2,1380.5z"/>
	</g>
	<g id="Layer_4">
		<path class="st3" d="M957.9,384.5c0,0,53.4,55.7,124.2,84.2c1.6,18.4,3.1,30.5,2.1,59.2c-15-10.4-35.5-26.9-64.4-36.8
			c-7.8,0.7-30.2-1.2-54.5,47c-24.4,48.2-85.8,170.4-213.9,198.3s-243.9-77.9-171-78.3s105.6-25.2,159-95.3s111.4-99.1,143.7-104.9
			c-60.8,7-107.4,4.7-179.4,57.5S553.1,632.5,490,649.4s-90.4,30-169.1,19.9c-61.6-4.1-107.9,84.4-208.4,78.8
			c-95.2,2.5-115.1-42.4-84.6-64.2s83.1-51.5,163.7-62.8C146.9,606.7,90.9,600,30.1,470.6s-12.5-107.4,8.3-101.9s73,18.4,107.9,58.5
			s164.7,220,218.1,215.6s135.5-22.2,175.6-55.1c40.2-32.9,167.3-151.4,252.7-169c-53.5-28-79.8-44.6-123.2-75.3
			s-117.8-36.3-127.1-24.5s-60.6-12,28.1-44.3c88.7-32.4,193.2-18.1,217.4-11.7C812.2,269.3,871.1,282.3,957.9,384.5z"/>
		<path class="st3" d="M1302.4,941.3c0,0,31.1-139.5-69.1-276.1c7.9-23.6,15.2-49.7,16.6-56.1c24,28.1,60.9,69.2,68.8,95.6
			c6.6-35.1,3.3-97.2,6.4-131.4s47.9-106.4,73.6-154.1s27.8-69.3,39.4-13.7c-0.4,54.1,1.2,69.3,16.1,127c15,57.6,14.7,193.2,0,228.5
			s-91.3,175.8-115.2,225.1c-23.9,49.2-71.7,132.1-136.4,156.8c-64.7,24.7-103.9,49.8-228.4,12.5c102.6,45.7,139.4,67.9,157,78.9
			c17.7,11,112.9,56.5,127.2,77.9c14.3,21.4,24.3,28.6-29.3,27c-53.7-1.6-259.9,26.8-350.4-64.8s-159.1-167.1-175-209
			c-27.5-34.8-44.7-40.7-79.9-56.2c-35.2-15.5-166.6-91.6-307.8-10.9s-122.3,237.4-120.6,254.8c1.7,17.4,16.8,35.4-15.7,45.8
			s-66.5,27.6-97.2,22.5c7.8-71.2,26-203.9,56.7-251.4c30.7-47.6,157.6-190.6,334.3-161.9S665.4,967.5,722,997
			c56.6,29.5,116,80,215.7-10.3s160.5-166.2,289.7-186.1c-42.5,141.9-49,211.2-131.6,255.4c-82.6,44.2-263.2,27.8-142.1,56.2
			c121,28.4,237.7,16.8,303.9-59.9C1307.1,965.8,1302.4,941.3,1302.4,941.3z"/>
		<path class="st3" d="M218.9,307.7c0,0-49.3,2.7-39.2,42.1s59.9,34.3,69.7,16.7C259.1,349,261.6,322.3,218.9,307.7z"/>
		<path class="st3" d="M588.7,405.6c0,0-39.9,7.1-46.2,44.9s39.1,38.6,46.2,31.3S644.2,425,588.7,405.6z"/>
		<path class="st3" d="M1225.5,142.1c0,0-27.8,1.2-23.7,47.7c4.1,46.5,75.7,31.8,71.1,0C1268.4,158,1266.1,140.9,1225.5,142.1z"/>
		<path class="st3" d="M1336.1,300.5c0,0,8.6,47-34.9,48.3s-25.5-49.2-16.8-55.7C1293.1,286.8,1320,268.9,1336.1,300.5z"/>
		<path class="st3" d="M212.1,816c0,0,0.1,53.3-45.3,52.4c-38.6-21.8-15.9-46.6-11.7-52.4C159.5,810.2,189.5,768.9,212.1,816z"/>
		<path class="st3" d="M107.3,947.1c0,0,9.9,27.1-9.4,48.1c-19.2,21-45.8,14.7-47.5-29.4s32-42.9,32-42.9S101.4,926.1,107.3,947.1z"
			/>
		<path class="st3" d="M839.3,928.4c0,0-30.3,9.4-22.8,24.4c7.4,15.1,25.1,39,41.1,12.9C873.7,939.7,839.3,928.4,839.3,928.4z"/>
		<path class="st3" d="M578,1070.1c0,0-65.1,38.2-42.2,63.4c22.9,25.2,44.9,9.7,53.5,0C597.9,1123.8,615.4,1079.1,578,1070.1z"/>
		<path class="st3" d="M691.1,1215c0,0,16.6,12.1,8.1,38.6s-73.2,34.1-71.6,8.6c1.6-25.5,1.7-41.2,27.2-52.2S691.1,1215,691.1,1215z
			"/>
		<path class="st3" d="M1324.6,1171.8c0,0-11.1,37.2-29.3,37c-18.3-0.2-40.7-8.8-36.9-37c3.8-28.2,33.4-37,33.4-37
			S1321,1125,1324.6,1171.8z"/>
	</g>
	<g id="leaf_gaps">
		<path class="st4" d="M901,548c0,0-10.2,14.7-20.2,31.2s-35.6,58.4-56.6,70.5s-68.4,35.4-49,14.3c24.6-17.2,46.8-30.6,60.6-46.9
			c13.8-16.3,40.4-59.8,54.4-71.4C904.3,534.1,915.6,525.8,901,548z"/>
		<path class="st4" d="M124.6,458.9c0,0,93.8,103.3,97.7,106.6c3.9,3.3,14.9,11.1-1.7,3.5s-59.1-46.4-73.8-65
			c-14.7-18.6-40.1-55-42.9-63.1C117.3,452.1,124.6,458.9,124.6,458.9z"/>
		<path class="st4" d="M1419,568.5c0,0,27.9,67.6-13.8,179.3c-3.9,9.5-9.8,25.8-3.4-9.1C1408.1,703.8,1418.4,653.5,1419,568.5z"/>
		<path class="st4" d="M838,1154.8c-3.4-8.3,138,107.5,199.3,119.1C962.6,1255.2,921.9,1259.2,838,1154.8z"/>
	</g>
</g>
</svg>
